<svg xmlns="http://www.w3.org/2000/svg" viewBox="0 0 225.88 85.68"><defs><style>.cls-1{fill:#505fa2;}.cls-2{fill:none;stroke:#cf767b;stroke-linejoin:round;stroke-width:3.5px;}</style></defs><title>Asset 6</title><g id="Layer_2" data-name="Layer 2"><g id="Layer_1-2" data-name="Layer 1"><path class="cls-1" d="M.6,63.15,5,58.82A1.94,1.94,0,0,1,7.9,59a10.24,10.24,0,0,0,7.68,3.92c4.53,0,7.85-3.55,7.85-8.61V22.17a2,2,0,0,1,2-2h7.24a2,2,0,0,1,2,2v33c0,10.42-7.4,17.82-17.9,17.82A22.72,22.72,0,0,1,.46,65.82,2,2,0,0,1,.6,63.15Z"/><path class="cls-1" d="M76.38,35V70.12a2,2,0,0,1-2,2H67.32a2,2,0,0,1-2-2V67.18A13.9,13.9,0,0,1,53.57,73c-8.46,0-14.5-6.27-14.5-15.1V35a2,2,0,0,1,2-2h6.71a2,2,0,0,1,2,2V55.55c0,4.83,3,8.15,7.4,8.15,4.61,0,8.15-3.32,8.15-7.55l.08.23V35a2,2,0,0,1,2-2h7.09A2,2,0,0,1,76.38,35Z"/><path class="cls-1" d="M105.23,34.24v5.31a2,2,0,0,1-1.82,2c-7.11.65-11.55,5.16-11.55,11.92V70.12a2,2,0,0,1-2,2H82.8a2,2,0,0,1-2-2V35a2,2,0,0,1,2-2h7.1a2,2,0,0,1,2,2v5.28a14.49,14.49,0,0,1,11.11-8A2,2,0,0,1,105.23,34.24Z"/><path class="cls-1" d="M107.06,21.64a6,6,0,1,1,6,6A6,6,0,0,1,107.06,21.64ZM109.48,33h7.1a2,2,0,0,1,2,2V70.12a2,2,0,0,1-2,2h-7.1a2,2,0,0,1-2-2V35A2,2,0,0,1,109.48,33Z"/><path class="cls-1" d="M137.22,33h6.49a2,2,0,0,1,2,2v5a2,2,0,0,1-2,2h-6.49V70.12a2,2,0,0,1-2,2h-6.64a2,2,0,0,1-2-2V42h-3.39a2,2,0,0,1-2-2V35a2,2,0,0,1,2-2h3.39V29.65c0-7,4.84-11.94,11.71-11.94a14.35,14.35,0,0,1,7.77,2.46,1.93,1.93,0,0,1,.68,2.31l-1.29,3.28a2,2,0,0,1-2.46,1.13,7.09,7.09,0,0,0-2.13-.34c-2,0-3.7,1.81-3.7,4.38Z"/><path class="cls-1" d="M150.27,82l1.43-4.62a1.51,1.51,0,0,1,2.05-.93,9.76,9.76,0,0,0,3.61,1c2.12,0,3.78-.68,4.61-2.12l1.36-2.87-15.12-36.7A2,2,0,0,1,150,33h7.1A2,2,0,0,1,159,34.32l9.8,26.14L178,34.35A2,2,0,0,1,179.89,33h7a2,2,0,0,1,1.83,2.68l-15,38.33c-2.95,7.63-7.93,11.63-14.05,11.63a23,23,0,0,1-8.61-1.83A1.52,1.52,0,0,1,150.27,82Z"/><path class="cls-2" d="M215.8,13.5a8.2,8.2,0,0,0-6.38-11.71l-.5,0h-.51a8.19,8.19,0,0,0-7.34,11.13l6.63,16.63Z"/><path class="cls-2" d="M200.46,9.27h0a5.07,5.07,0,0,1,6.95,1.26h0a5.36,5.36,0,0,1,1,3.33l0,.41"/><path class="cls-2" d="M216.7,10h0a5.06,5.06,0,0,0-7,.66h0a5.37,5.37,0,0,0-1.27,3.24l0,.41"/><path class="cls-2" d="M216.6,10h0a7.84,7.84,0,0,0,6.48-3l.23-.29s5.55,13.5-12.22,16.63"/><path class="cls-2" d="M200.62,9.27h0a7.82,7.82,0,0,1-6.21-3.5l-.2-.3s-6.68,13,10.76,17.6"/></g></g></svg>