<svg xmlns="http://www.w3.org/2000/svg" viewBox="0 0 188.85 69.93"><defs><style>.cls-1{fill:#cf767b;}</style></defs><title>Asset 3</title><g id="Layer_2" data-name="Layer 2"><g id="Layer_1-2" data-name="Layer 1"><path class="cls-1" d="M.6,47.4,5,43.07a1.94,1.94,0,0,1,2.87.13,10.24,10.24,0,0,0,7.68,3.92c4.53,0,7.85-3.55,7.85-8.61V6.42a2,2,0,0,1,2-2h7.24a2,2,0,0,1,2,2v33c0,10.42-7.4,17.82-17.9,17.82A22.72,22.72,0,0,1,.46,50.07,2,2,0,0,1,.6,47.4Z"/><path class="cls-1" d="M76.38,19.26V54.37a2,2,0,0,1-2,2H67.32a2,2,0,0,1-2-2V51.43a13.9,13.9,0,0,1-11.78,5.81c-8.46,0-14.5-6.27-14.5-15.1V19.26a2,2,0,0,1,2-2h6.71a2,2,0,0,1,2,2V39.8c0,4.83,3,8.15,7.4,8.15,4.61,0,8.15-3.32,8.15-7.55l.08.23V19.26a2,2,0,0,1,2-2h7.09A2,2,0,0,1,76.38,19.26Z"/><path class="cls-1" d="M105.23,18.49V23.8a2,2,0,0,1-1.82,2c-7.11.65-11.55,5.16-11.55,11.92V54.37a2,2,0,0,1-2,2H82.8a2,2,0,0,1-2-2V19.26a2,2,0,0,1,2-2h7.1a2,2,0,0,1,2,2v5.28a14.49,14.49,0,0,1,11.11-8A2,2,0,0,1,105.23,18.49Z"/><path class="cls-1" d="M107.06,5.89a6,6,0,0,1,11.93,0,6,6,0,1,1-11.93,0Zm2.42,11.4h7.1a2,2,0,0,1,2,2V54.37a2,2,0,0,1-2,2h-7.1a2,2,0,0,1-2-2V19.26A2,2,0,0,1,109.48,17.29Z"/><path class="cls-1" d="M137.22,17.29h6.49a2,2,0,0,1,2,2v5a2,2,0,0,1-2,2h-6.49V54.37a2,2,0,0,1-2,2h-6.64a2,2,0,0,1-2-2V26.2h-3.39a2,2,0,0,1-2-2v-5a2,2,0,0,1,2-2h3.39V13.9c0-7,4.84-11.94,11.71-11.94a14.35,14.35,0,0,1,7.77,2.46,1.93,1.93,0,0,1,.68,2.31L145.51,10a2,2,0,0,1-2.46,1.13,7.09,7.09,0,0,0-2.13-.34c-2,0-3.7,1.81-3.7,4.38Z"/><path class="cls-1" d="M150.27,66.27l1.43-4.62a1.51,1.51,0,0,1,2.05-.93,9.76,9.76,0,0,0,3.61,1c2.12,0,3.78-.68,4.61-2.12l1.36-2.87L148.21,20A2,2,0,0,1,150,17.29h7.1A2,2,0,0,1,159,18.57l9.8,26.14L178,18.6a2,2,0,0,1,1.85-1.31h7A2,2,0,0,1,188.71,20l-15,38.33c-2.95,7.63-7.93,11.63-14.05,11.63a23,23,0,0,1-8.61-1.83A1.52,1.52,0,0,1,150.27,66.27Z"/></g></g></svg>