<svg xmlns="http://www.w3.org/2000/svg" viewBox="0 0 225.88 85.68"><defs><style>.cls-1{fill:#444554;}.cls-2{fill:#cf767b;}</style></defs><title>Asset 8</title><g id="Layer_2" data-name="Layer 2"><g id="Layer_1-2" data-name="Layer 1"><path class="cls-1" d="M.6,63.15,5,58.82A1.94,1.94,0,0,1,7.9,59a10.24,10.24,0,0,0,7.68,3.92c4.53,0,7.85-3.55,7.85-8.61V22.17a2,2,0,0,1,2-2h7.24a2,2,0,0,1,2,2v33c0,10.42-7.4,17.82-17.9,17.82A22.72,22.72,0,0,1,.46,65.82,2,2,0,0,1,.6,63.15Z"/><path class="cls-1" d="M76.38,35V70.12a2,2,0,0,1-2,2H67.32a2,2,0,0,1-2-2V67.18A13.9,13.9,0,0,1,53.57,73c-8.46,0-14.5-6.27-14.5-15.1V35a2,2,0,0,1,2-2h6.71a2,2,0,0,1,2,2V55.55c0,4.83,3,8.15,7.4,8.15,4.61,0,8.15-3.32,8.15-7.55l.08.23V35a2,2,0,0,1,2-2h7.09A2,2,0,0,1,76.38,35Z"/><path class="cls-1" d="M105.23,34.24v5.31a2,2,0,0,1-1.82,2c-7.11.65-11.55,5.16-11.55,11.92V70.12a2,2,0,0,1-2,2H82.8a2,2,0,0,1-2-2V35a2,2,0,0,1,2-2h7.1a2,2,0,0,1,2,2v5.28a14.49,14.49,0,0,1,11.11-8A2,2,0,0,1,105.23,34.24Z"/><path class="cls-1" d="M107.06,21.64a6,6,0,1,1,6,6A6,6,0,0,1,107.06,21.64ZM109.48,33h7.1a2,2,0,0,1,2,2V70.12a2,2,0,0,1-2,2h-7.1a2,2,0,0,1-2-2V35A2,2,0,0,1,109.48,33Z"/><path class="cls-1" d="M137.22,33h6.49a2,2,0,0,1,2,2v5a2,2,0,0,1-2,2h-6.49V70.12a2,2,0,0,1-2,2h-6.64a2,2,0,0,1-2-2V42h-3.39a2,2,0,0,1-2-2V35a2,2,0,0,1,2-2h3.39V29.65c0-7,4.84-11.94,11.71-11.94a14.35,14.35,0,0,1,7.77,2.46,1.93,1.93,0,0,1,.68,2.31l-1.29,3.28a2,2,0,0,1-2.46,1.13,7.09,7.09,0,0,0-2.13-.34c-2,0-3.7,1.81-3.7,4.38Z"/><path class="cls-1" d="M150.27,82l1.43-4.62a1.51,1.51,0,0,1,2.05-.93,9.76,9.76,0,0,0,3.61,1c2.12,0,3.78-.68,4.61-2.12l1.36-2.87-15.12-36.7A2,2,0,0,1,150,33h7.1A2,2,0,0,1,159,34.32l9.8,26.13L178,34.35A2,2,0,0,1,179.89,33h7a2,2,0,0,1,1.83,2.68l-15,38.33c-2.95,7.63-7.93,11.63-14.05,11.63a23,23,0,0,1-8.61-1.83A1.52,1.52,0,0,1,150.27,82Z"/><path class="cls-2" d="M207.7,31.26h-.08a1.77,1.77,0,0,1-1.55-1.1l-6.63-16.64a10.13,10.13,0,0,1,1.1-9.26A9.57,9.57,0,0,1,208.39,0h.6l.6,0A9.59,9.59,0,0,1,217.05,5a10.13,10.13,0,0,1,.33,9.29l0,0-8.1,16A1.76,1.76,0,0,1,207.7,31.26Zm.84-27.76h-.1a6.11,6.11,0,0,0-5,2.73,6.61,6.61,0,0,0-.73,6l5.18,13,6.33-12.53A6.6,6.6,0,0,0,214,6.68a6.13,6.13,0,0,0-4.75-3.15l-.4,0Z"/><path class="cls-2" d="M210.13,14.34l-3.5-.15,0-.41a3.61,3.61,0,0,0-.66-2.23,3.3,3.3,0,0,0-4.55-.83l-1.95-2.91a6.78,6.78,0,0,1,9.34,1.7,7.13,7.13,0,0,1,1.32,4.42Z"/><path class="cls-2" d="M210.14,14.34l-3.5-.15,0-.41a7.13,7.13,0,0,1,1.68-4.29,6.79,6.79,0,0,1,9.46-.9l-2.19,2.73a3.31,3.31,0,0,0-4.6.44,3.54,3.54,0,0,0-.85,2.17Z"/><path class="cls-2" d="M211.39,25.05l-.6-3.45c5.34-.94,8.89-2.93,10.53-5.91a9.44,9.44,0,0,0,1-5.64,9.61,9.61,0,0,1-5.79,1.65l.15-3.5a6.19,6.19,0,0,0,5-2.3l.22-.29A1.77,1.77,0,0,1,223.55,5,1.73,1.73,0,0,1,224.92,6c.1.25,2.41,6-.53,11.35C222.21,21.34,217.84,23.92,211.39,25.05Z"/><path class="cls-2" d="M204.52,24.76c-6.32-1.68-10.46-4.62-12.3-8.75-2.48-5.58.31-11.11.43-11.35a1.76,1.76,0,0,1,3-.16l.2.31a6.13,6.13,0,0,0,4.82,2.72L200.54,11a9.66,9.66,0,0,1-5.62-2.12,9.53,9.53,0,0,0,.51,5.72c1.4,3.1,4.75,5.37,10,6.75Z"/></g></g></svg>