<svg xmlns="http://www.w3.org/2000/svg" viewBox="0 0 34.68 31.26"><defs><style>.cls-1{fill:none;stroke:#cf767b;stroke-linejoin:round;stroke-width:3.5px;}</style></defs><title>Asset 1</title><g id="Layer_2" data-name="Layer 2"><g id="Layer_1-2" data-name="Layer 1"><path class="cls-1" d="M24.6,13.5A8.2,8.2,0,0,0,18.22,1.79l-.5,0h-.51A8.19,8.19,0,0,0,9.87,12.88L16.5,29.51Z"/><path class="cls-1" d="M9.26,9.27h0a5.07,5.07,0,0,1,7,1.26h0a5.36,5.36,0,0,1,1,3.33l0,.41"/><path class="cls-1" d="M25.5,10h0a5.06,5.06,0,0,0-7,.66h0a5.37,5.37,0,0,0-1.27,3.24l0,.41"/><path class="cls-1" d="M25.4,10h0a7.83,7.83,0,0,0,6.48-3l.23-.29s5.55,13.5-12.22,16.63"/><path class="cls-1" d="M9.42,9.27h0a7.82,7.82,0,0,1-6.21-3.5L3,5.47s-6.68,13,10.76,17.6"/></g></g></svg>