<svg xmlns="http://www.w3.org/2000/svg" viewBox="0 0 34.68 31.26"><defs><style>.cls-1{fill:#505fa2;}</style></defs><title>Asset 5</title><g id="Layer_2" data-name="Layer 2"><g id="Layer_1-2" data-name="Layer 1"><path class="cls-1" d="M16.5,31.26h-.08a1.75,1.75,0,0,1-1.55-1.1L8.24,13.53a10.15,10.15,0,0,1,1.1-9.26A9.6,9.6,0,0,1,17.19,0h.6l.6,0A9.58,9.58,0,0,1,25.85,5a10.13,10.13,0,0,1,.33,9.29l0,0-8.1,16A1.75,1.75,0,0,1,16.5,31.26ZM17.34,3.5h-.1a6.1,6.1,0,0,0-5,2.74,6.58,6.58,0,0,0-.73,6l5.18,13L23,12.73a6.63,6.63,0,0,0-.23-6.05,6.12,6.12,0,0,0-4.75-3.14,2.69,2.69,0,0,0-.4,0Z"/><path class="cls-1" d="M18.93,14.34l-3.5-.15,0-.41a3.55,3.55,0,0,0-.66-2.23,3.31,3.31,0,0,0-4.55-.83l-2-2.9a6.77,6.77,0,0,1,9.34,1.69A7.13,7.13,0,0,1,19,13.93Z"/><path class="cls-1" d="M18.94,14.34l-3.5-.15,0-.41a7.19,7.19,0,0,1,1.68-4.29,6.8,6.8,0,0,1,9.46-.9l-2.19,2.73a3.31,3.31,0,0,0-4.6.44A3.57,3.57,0,0,0,19,13.93Z"/><path class="cls-1" d="M20.19,25.05l-.6-3.45c5.34-.94,8.89-2.93,10.53-5.91a9.42,9.42,0,0,0,1-5.63,9.65,9.65,0,0,1-5.79,1.64l.15-3.49a6.23,6.23,0,0,0,5-2.31l.23-.29A1.73,1.73,0,0,1,32.35,5,1.76,1.76,0,0,1,33.73,6c.1.24,2.4,6-.54,11.34C31,21.34,26.64,23.92,20.19,25.05Z"/><path class="cls-1" d="M13.32,24.76C7,23.08,2.86,20.14,1,16c-2.49-5.58.3-11.11.42-11.34a1.74,1.74,0,0,1,3-.17l.21.31A6.13,6.13,0,0,0,9.49,7.53L9.34,11A9.66,9.66,0,0,1,3.72,8.9a9.46,9.46,0,0,0,.52,5.72c1.39,3.1,4.75,5.37,10,6.76Z"/></g></g></svg>